<?xml version="1.0" encoding="utf-8"?>
<svg version="1.1" xmlns:xlink="http://www.w3.org/1999/xlink" width="24px" height="33px" xmlns="http://www.w3.org/2000/svg">
  <defs>
    <pattern id="BGPattern" patternUnits="userSpaceOnUse" alignment="0 0" imageRepeat="None" />
    <mask fill="white" id="Clip1">
      <path d="M 23.840625000000003 23.858398437499996  C 23.946875 24.939778645833332  24 26.089192708333332  24 27.306640625  C 24 28.867838541666668  23.609375 30.20703125  22.828125 31.32421875  C 22.046875 32.44140625  21.106250000000003 33  20.00625 33  L 3.9937500000000004 33  C 2.89375 33  1.9531250000000002 32.44140625  1.1718750000000002 31.32421875  C 0.3906250000000001 30.20703125  0 28.867838541666668  0 27.306640625  C 0 26.089192708333332  0.053125000000000124 24.939778645833332  0.15937500000000016 23.858398437499996  C 0.2656250000000001 22.77701822916666  0.46250000000000013 21.6884765625  0.7500000000000002 20.5927734375  C 1.0375000000000003 19.4970703125  1.4031250000000002 18.558919270833336  1.8468749999999998 17.778320312500004  C 2.2906250000000004 16.997721354166664  2.878125 16.3603515625  3.609375 15.866210937500002  C 4.340624999999999 15.3720703125  5.18125 15.125000000000002  6.1312500000000005 15.125000000000002  C 7.768750000000001 16.958333333333332  9.725000000000001 17.875000000000004  12 17.875000000000004  C 14.275000000000004 17.875000000000004  16.231250000000003 16.958333333333332  17.86875 15.125000000000002  C 18.81875 15.125000000000002  19.659374999999997 15.3720703125  20.390625 15.866210937500002  C 21.121875000000003 16.3603515625  21.709375 16.997721354166664  22.153125000000003 17.778320312500004  C 22.596875000000004 18.558919270833336  22.9625 19.4970703125  23.25 20.5927734375  C 23.5375 21.6884765625  23.734375 22.77701822916666  23.840625000000003 23.858398437499996  Z M 17.090625000000003 2.4169921875  C 18.496875000000003 4.0283203125  19.200000000000003 5.972656250000001  19.200000000000003 8.25  C 19.200000000000003 10.527343749999998  18.496875000000003 12.4716796875  17.090625000000003 14.0830078125  C 15.684375000000001 15.6943359375  13.987499999999999 16.5  12 16.5  C 10.0125 16.5  8.315625 15.6943359375  6.909375000000001 14.0830078125  C 5.503125000000001 12.4716796875  4.800000000000001 10.527343749999998  4.800000000000001 8.25  C 4.800000000000001 5.972656250000001  5.503125000000001 4.0283203125  6.909375000000001 2.4169921875  C 8.315625 0.8056640625  10.0125 0  12 0  C 13.987499999999999 0  15.684375000000001 0.8056640625  17.090625000000003 2.4169921875  Z " fill-rule="evenodd" />
    </mask>
  </defs>
  <g transform="matrix(1 0 0 1 -17 -385 )">
    <path d="M 23.840625000000003 23.858398437499996  C 23.946875 24.939778645833332  24 26.089192708333332  24 27.306640625  C 24 28.867838541666668  23.609375 30.20703125  22.828125 31.32421875  C 22.046875 32.44140625  21.106250000000003 33  20.00625 33  L 3.9937500000000004 33  C 2.89375 33  1.9531250000000002 32.44140625  1.1718750000000002 31.32421875  C 0.3906250000000001 30.20703125  0 28.867838541666668  0 27.306640625  C 0 26.089192708333332  0.053125000000000124 24.939778645833332  0.15937500000000016 23.858398437499996  C 0.2656250000000001 22.77701822916666  0.46250000000000013 21.6884765625  0.7500000000000002 20.5927734375  C 1.0375000000000003 19.4970703125  1.4031250000000002 18.558919270833336  1.8468749999999998 17.778320312500004  C 2.2906250000000004 16.997721354166664  2.878125 16.3603515625  3.609375 15.866210937500002  C 4.340624999999999 15.3720703125  5.18125 15.125000000000002  6.1312500000000005 15.125000000000002  C 7.768750000000001 16.958333333333332  9.725000000000001 17.875000000000004  12 17.875000000000004  C 14.275000000000004 17.875000000000004  16.231250000000003 16.958333333333332  17.86875 15.125000000000002  C 18.81875 15.125000000000002  19.659374999999997 15.3720703125  20.390625 15.866210937500002  C 21.121875000000003 16.3603515625  21.709375 16.997721354166664  22.153125000000003 17.778320312500004  C 22.596875000000004 18.558919270833336  22.9625 19.4970703125  23.25 20.5927734375  C 23.5375 21.6884765625  23.734375 22.77701822916666  23.840625000000003 23.858398437499996  Z M 17.090625000000003 2.4169921875  C 18.496875000000003 4.0283203125  19.200000000000003 5.972656250000001  19.200000000000003 8.25  C 19.200000000000003 10.527343749999998  18.496875000000003 12.4716796875  17.090625000000003 14.0830078125  C 15.684375000000001 15.6943359375  13.987499999999999 16.5  12 16.5  C 10.0125 16.5  8.315625 15.6943359375  6.909375000000001 14.0830078125  C 5.503125000000001 12.4716796875  4.800000000000001 10.527343749999998  4.800000000000001 8.25  C 4.800000000000001 5.972656250000001  5.503125000000001 4.0283203125  6.909375000000001 2.4169921875  C 8.315625 0.8056640625  10.0125 0  12 0  C 13.987499999999999 0  15.684375000000001 0.8056640625  17.090625000000003 2.4169921875  Z " fill-rule="nonzero" fill="rgba(0, 0, 0, 1)" stroke="none" transform="matrix(1 0 0 1 17 385 )" class="fill" />
    <path d="M 23.840625000000003 23.858398437499996  C 23.946875 24.939778645833332  24 26.089192708333332  24 27.306640625  C 24 28.867838541666668  23.609375 30.20703125  22.828125 31.32421875  C 22.046875 32.44140625  21.106250000000003 33  20.00625 33  L 3.9937500000000004 33  C 2.89375 33  1.9531250000000002 32.44140625  1.1718750000000002 31.32421875  C 0.3906250000000001 30.20703125  0 28.867838541666668  0 27.306640625  C 0 26.089192708333332  0.053125000000000124 24.939778645833332  0.15937500000000016 23.858398437499996  C 0.2656250000000001 22.77701822916666  0.46250000000000013 21.6884765625  0.7500000000000002 20.5927734375  C 1.0375000000000003 19.4970703125  1.4031250000000002 18.558919270833336  1.8468749999999998 17.778320312500004  C 2.2906250000000004 16.997721354166664  2.878125 16.3603515625  3.609375 15.866210937500002  C 4.340624999999999 15.3720703125  5.18125 15.125000000000002  6.1312500000000005 15.125000000000002  C 7.768750000000001 16.958333333333332  9.725000000000001 17.875000000000004  12 17.875000000000004  C 14.275000000000004 17.875000000000004  16.231250000000003 16.958333333333332  17.86875 15.125000000000002  C 18.81875 15.125000000000002  19.659374999999997 15.3720703125  20.390625 15.866210937500002  C 21.121875000000003 16.3603515625  21.709375 16.997721354166664  22.153125000000003 17.778320312500004  C 22.596875000000004 18.558919270833336  22.9625 19.4970703125  23.25 20.5927734375  C 23.5375 21.6884765625  23.734375 22.77701822916666  23.840625000000003 23.858398437499996  Z " stroke-width="0" stroke-dasharray="0" stroke="rgba(255, 255, 255, 0)" fill="none" transform="matrix(1 0 0 1 17 385 )" class="stroke" mask="url(#Clip1)" />
    <path d="M 17.090625000000003 2.4169921875  C 18.496875000000003 4.0283203125  19.200000000000003 5.972656250000001  19.200000000000003 8.25  C 19.200000000000003 10.527343749999998  18.496875000000003 12.4716796875  17.090625000000003 14.0830078125  C 15.684375000000001 15.6943359375  13.987499999999999 16.5  12 16.5  C 10.0125 16.5  8.315625 15.6943359375  6.909375000000001 14.0830078125  C 5.503125000000001 12.4716796875  4.800000000000001 10.527343749999998  4.800000000000001 8.25  C 4.800000000000001 5.972656250000001  5.503125000000001 4.0283203125  6.909375000000001 2.4169921875  C 8.315625 0.8056640625  10.0125 0  12 0  C 13.987499999999999 0  15.684375000000001 0.8056640625  17.090625000000003 2.4169921875  Z " stroke-width="0" stroke-dasharray="0" stroke="rgba(255, 255, 255, 0)" fill="none" transform="matrix(1 0 0 1 17 385 )" class="stroke" mask="url(#Clip1)" />
  </g>
</svg>