<?xml version="1.0" encoding="utf-8"?>
<svg version="1.1" xmlns:xlink="http://www.w3.org/1999/xlink" width="50px" height="50px" xmlns="http://www.w3.org/2000/svg">
  <defs>
    <pattern id="BGPattern" patternUnits="userSpaceOnUse" alignment="0 0" imageRepeat="None" />
    <mask fill="white" id="Clip3">
      <path d="M 36.78385416666667 29.248046875  C 37.04427083333333 29.758029513888886  37.087673611111114 30.284288194444443  36.9140625 30.826822916666664  C 36.111111111111114 33.45269097222222  34.613715277777786 35.568576388888886  32.421875 37.174479166666664  C 30.230034722222225 38.78038194444444  27.75607638888889 39.58333333333333  25 39.58333333333333  C 22.243923611111114 39.58333333333333  19.76996527777778 38.78038194444444  17.578125 37.174479166666664  C 15.386284722222223 35.568576388888886  13.88888888888889 33.45269097222222  13.0859375 30.826822916666664  C 12.91232638888889 30.284288194444443  12.955729166666666 29.758029513888886  13.216145833333334 29.248046875  C 13.4765625 28.738064236111104  13.88888888888889 28.396267361111104  14.453125 28.22265625  C 14.995659722222223 28.049045138888886  15.521918402777779 28.092447916666664  16.031901041666664 28.352864583333336  C 16.541883680555557 28.61328125  16.883680555555557 29.025607638888886  17.057291666666664 29.58984375  C 17.599826388888893 31.325954861111104  18.603515625 32.731119791666664  20.068359375 33.805338541666664  C 21.533203125 34.879557291666664  23.177083333333336 35.416666666666664  25 35.416666666666664  C 26.822916666666668 35.416666666666664  28.466796875000007 34.879557291666664  29.931640625 33.805338541666664  C 31.396484375000007 32.731119791666664  32.400173611111114 31.325954861111104  32.94270833333333 29.58984375  C 33.11631944444445 29.025607638888886  33.46354166666667 28.61328125  33.984375 28.352864583333336  C 34.50520833333333 28.092447916666664  35.036892361111114 28.049045138888886  35.57942708333333 28.22265625  C 36.12196180555556 28.396267361111104  36.5234375 28.738064236111104  36.78385416666667 29.248046875  Z M 19.612630208333336 13.720703125  C 20.426432291666664 14.534505208333332  20.833333333333336 15.516493055555552  20.833333333333336 16.666666666666668  C 20.833333333333336 17.816840277777775  20.426432291666664 18.798828124999993  19.612630208333336 19.612630208333332  C 18.798828125 20.426432291666668  17.81684027777778 20.833333333333332  16.666666666666664 20.833333333333332  C 15.516493055555557 20.833333333333332  14.534505208333334 20.426432291666668  13.720703125 19.612630208333332  C 12.906901041666666 18.798828124999993  12.5 17.816840277777775  12.5 16.666666666666668  C 12.5 15.516493055555552  12.906901041666666 14.534505208333332  13.720703125 13.720703125  C 14.534505208333334 12.906901041666668  15.516493055555557 12.5  16.666666666666664 12.5  C 17.81684027777778 12.5  18.798828125 12.906901041666668  19.612630208333336 13.720703125  Z M 36.279296875 13.720703125  C 37.09309895833333 14.534505208333332  37.5 15.516493055555552  37.5 16.666666666666668  C 37.5 17.816840277777775  37.09309895833333 18.798828124999993  36.279296875 19.612630208333332  C 35.46549479166667 20.426432291666668  34.48350694444445 20.833333333333332  33.33333333333333 20.833333333333332  C 32.18315972222223 20.833333333333332  31.201171875 20.426432291666668  30.387369791666668 19.612630208333332  C 29.573567708333332 18.798828124999993  29.166666666666668 17.816840277777775  29.166666666666668 16.666666666666668  C 29.166666666666668 15.516493055555552  29.573567708333332 14.534505208333332  30.387369791666668 13.720703125  C 31.201171875 12.906901041666668  32.18315972222223 12.5  33.33333333333333 12.5  C 34.48350694444445 12.5  35.46549479166667 12.906901041666668  36.279296875 13.720703125  Z M 44.17317708333333 33.089192708333336  C 45.27994791666667 30.517578125  45.83333333333333 27.821180555555557  45.83333333333333 25  C 45.83333333333333 22.178819444444443  45.27994791666667 19.482421875  44.17317708333333 16.910807291666668  C 43.06640625 14.339192708333332  41.58528645833333 12.125651041666668  39.72981770833333 10.270182291666668  C 37.87434895833333 8.414713541666668  35.66080729166667 6.93359375  33.08919270833333 5.826822916666669  C 30.517578125 4.720052083333331  27.821180555555557 4.166666666666669  25 4.166666666666669  C 22.178819444444446 4.166666666666669  19.482421875 4.720052083333331  16.910807291666664 5.826822916666669  C 14.339192708333334 6.93359375  12.125651041666668 8.414713541666668  10.270182291666668 10.270182291666668  C 8.414713541666668 12.125651041666668  6.93359375 14.339192708333332  5.826822916666666 16.910807291666668  C 4.720052083333334 19.482421875  4.166666666666666 22.178819444444443  4.166666666666666 25  C 4.166666666666666 27.821180555555557  4.720052083333334 30.517578125  5.826822916666666 33.089192708333336  C 6.93359375 35.660807291666664  8.414713541666668 37.87434895833333  10.270182291666668 39.72981770833333  C 12.125651041666668 41.58528645833333  14.339192708333334 43.06640625  16.910807291666664 44.17317708333333  C 19.482421875 45.27994791666667  22.178819444444446 45.83333333333333  25 45.83333333333333  C 27.821180555555557 45.83333333333333  30.517578125 45.27994791666667  33.08919270833333 44.17317708333333  C 35.66080729166667 43.06640625  37.87434895833333 41.58528645833333  39.72981770833333 39.72981770833333  C 41.58528645833333 37.87434895833333  43.06640625 35.660807291666664  44.17317708333333 33.089192708333336  Z M 46.64713541666667 12.451171875  C 48.882378472222214 16.281467013888886  50 20.464409722222214  50 25  C 50 29.53559027777778  48.882378472222214 33.71853298611111  46.64713541666667 37.548828125  C 44.411892361111114 41.37912326388889  41.37912326388889 44.41189236111111  37.548828125 46.64713541666667  C 33.718532986111114 48.88237847222223  29.53559027777778 50  25 50  C 20.464409722222225 50  16.28146701388889 48.88237847222223  12.451171875 46.64713541666667  C 8.620876736111112 44.41189236111111  5.588107638888889 41.37912326388889  3.3528645833333335 37.548828125  C 1.1176215277777777 33.71853298611111  0 29.53559027777778  0 25  C 0 20.464409722222214  1.1176215277777777 16.281467013888886  3.3528645833333335 12.451171875  C 5.588107638888889 8.62087673611111  8.620876736111112 5.588107638888884  12.451171875 3.3528645833333313  C 16.28146701388889 1.1176215277777735  20.464409722222225 0  25 0  C 29.53559027777778 0  33.718532986111114 1.1176215277777735  37.548828125 3.3528645833333313  C 41.37912326388889 5.588107638888884  44.411892361111114 8.62087673611111  46.64713541666667 12.451171875  Z " fill-rule="evenodd" />
    </mask>
  </defs>
  <g transform="matrix(1 0 0 1 -610 -235 )">
    <path d="M 36.78385416666667 29.248046875  C 37.04427083333333 29.758029513888886  37.087673611111114 30.284288194444443  36.9140625 30.826822916666664  C 36.111111111111114 33.45269097222222  34.613715277777786 35.568576388888886  32.421875 37.174479166666664  C 30.230034722222225 38.78038194444444  27.75607638888889 39.58333333333333  25 39.58333333333333  C 22.243923611111114 39.58333333333333  19.76996527777778 38.78038194444444  17.578125 37.174479166666664  C 15.386284722222223 35.568576388888886  13.88888888888889 33.45269097222222  13.0859375 30.826822916666664  C 12.91232638888889 30.284288194444443  12.955729166666666 29.758029513888886  13.216145833333334 29.248046875  C 13.4765625 28.738064236111104  13.88888888888889 28.396267361111104  14.453125 28.22265625  C 14.995659722222223 28.049045138888886  15.521918402777779 28.092447916666664  16.031901041666664 28.352864583333336  C 16.541883680555557 28.61328125  16.883680555555557 29.025607638888886  17.057291666666664 29.58984375  C 17.599826388888893 31.325954861111104  18.603515625 32.731119791666664  20.068359375 33.805338541666664  C 21.533203125 34.879557291666664  23.177083333333336 35.416666666666664  25 35.416666666666664  C 26.822916666666668 35.416666666666664  28.466796875000007 34.879557291666664  29.931640625 33.805338541666664  C 31.396484375000007 32.731119791666664  32.400173611111114 31.325954861111104  32.94270833333333 29.58984375  C 33.11631944444445 29.025607638888886  33.46354166666667 28.61328125  33.984375 28.352864583333336  C 34.50520833333333 28.092447916666664  35.036892361111114 28.049045138888886  35.57942708333333 28.22265625  C 36.12196180555556 28.396267361111104  36.5234375 28.738064236111104  36.78385416666667 29.248046875  Z M 19.612630208333336 13.720703125  C 20.426432291666664 14.534505208333332  20.833333333333336 15.516493055555552  20.833333333333336 16.666666666666668  C 20.833333333333336 17.816840277777775  20.426432291666664 18.798828124999993  19.612630208333336 19.612630208333332  C 18.798828125 20.426432291666668  17.81684027777778 20.833333333333332  16.666666666666664 20.833333333333332  C 15.516493055555557 20.833333333333332  14.534505208333334 20.426432291666668  13.720703125 19.612630208333332  C 12.906901041666666 18.798828124999993  12.5 17.816840277777775  12.5 16.666666666666668  C 12.5 15.516493055555552  12.906901041666666 14.534505208333332  13.720703125 13.720703125  C 14.534505208333334 12.906901041666668  15.516493055555557 12.5  16.666666666666664 12.5  C 17.81684027777778 12.5  18.798828125 12.906901041666668  19.612630208333336 13.720703125  Z M 36.279296875 13.720703125  C 37.09309895833333 14.534505208333332  37.5 15.516493055555552  37.5 16.666666666666668  C 37.5 17.816840277777775  37.09309895833333 18.798828124999993  36.279296875 19.612630208333332  C 35.46549479166667 20.426432291666668  34.48350694444445 20.833333333333332  33.33333333333333 20.833333333333332  C 32.18315972222223 20.833333333333332  31.201171875 20.426432291666668  30.387369791666668 19.612630208333332  C 29.573567708333332 18.798828124999993  29.166666666666668 17.816840277777775  29.166666666666668 16.666666666666668  C 29.166666666666668 15.516493055555552  29.573567708333332 14.534505208333332  30.387369791666668 13.720703125  C 31.201171875 12.906901041666668  32.18315972222223 12.5  33.33333333333333 12.5  C 34.48350694444445 12.5  35.46549479166667 12.906901041666668  36.279296875 13.720703125  Z M 44.17317708333333 33.089192708333336  C 45.27994791666667 30.517578125  45.83333333333333 27.821180555555557  45.83333333333333 25  C 45.83333333333333 22.178819444444443  45.27994791666667 19.482421875  44.17317708333333 16.910807291666668  C 43.06640625 14.339192708333332  41.58528645833333 12.125651041666668  39.72981770833333 10.270182291666668  C 37.87434895833333 8.414713541666668  35.66080729166667 6.93359375  33.08919270833333 5.826822916666669  C 30.517578125 4.720052083333331  27.821180555555557 4.166666666666669  25 4.166666666666669  C 22.178819444444446 4.166666666666669  19.482421875 4.720052083333331  16.910807291666664 5.826822916666669  C 14.339192708333334 6.93359375  12.125651041666668 8.414713541666668  10.270182291666668 10.270182291666668  C 8.414713541666668 12.125651041666668  6.93359375 14.339192708333332  5.826822916666666 16.910807291666668  C 4.720052083333334 19.482421875  4.166666666666666 22.178819444444443  4.166666666666666 25  C 4.166666666666666 27.821180555555557  4.720052083333334 30.517578125  5.826822916666666 33.089192708333336  C 6.93359375 35.660807291666664  8.414713541666668 37.87434895833333  10.270182291666668 39.72981770833333  C 12.125651041666668 41.58528645833333  14.339192708333334 43.06640625  16.910807291666664 44.17317708333333  C 19.482421875 45.27994791666667  22.178819444444446 45.83333333333333  25 45.83333333333333  C 27.821180555555557 45.83333333333333  30.517578125 45.27994791666667  33.08919270833333 44.17317708333333  C 35.66080729166667 43.06640625  37.87434895833333 41.58528645833333  39.72981770833333 39.72981770833333  C 41.58528645833333 37.87434895833333  43.06640625 35.660807291666664  44.17317708333333 33.089192708333336  Z M 46.64713541666667 12.451171875  C 48.882378472222214 16.281467013888886  50 20.464409722222214  50 25  C 50 29.53559027777778  48.882378472222214 33.71853298611111  46.64713541666667 37.548828125  C 44.411892361111114 41.37912326388889  41.37912326388889 44.41189236111111  37.548828125 46.64713541666667  C 33.718532986111114 48.88237847222223  29.53559027777778 50  25 50  C 20.464409722222225 50  16.28146701388889 48.88237847222223  12.451171875 46.64713541666667  C 8.620876736111112 44.41189236111111  5.588107638888889 41.37912326388889  3.3528645833333335 37.548828125  C 1.1176215277777777 33.71853298611111  0 29.53559027777778  0 25  C 0 20.464409722222214  1.1176215277777777 16.281467013888886  3.3528645833333335 12.451171875  C 5.588107638888889 8.62087673611111  8.620876736111112 5.588107638888884  12.451171875 3.3528645833333313  C 16.28146701388889 1.1176215277777735  20.464409722222225 0  25 0  C 29.53559027777778 0  33.718532986111114 1.1176215277777735  37.548828125 3.3528645833333313  C 41.37912326388889 5.588107638888884  44.411892361111114 8.62087673611111  46.64713541666667 12.451171875  Z " fill-rule="nonzero" fill="rgba(0, 0, 0, 1)" stroke="none" transform="matrix(1 0 0 1 610 235 )" class="fill" />
    <path d="M 36.78385416666667 29.248046875  C 37.04427083333333 29.758029513888886  37.087673611111114 30.284288194444443  36.9140625 30.826822916666664  C 36.111111111111114 33.45269097222222  34.613715277777786 35.568576388888886  32.421875 37.174479166666664  C 30.230034722222225 38.78038194444444  27.75607638888889 39.58333333333333  25 39.58333333333333  C 22.243923611111114 39.58333333333333  19.76996527777778 38.78038194444444  17.578125 37.174479166666664  C 15.386284722222223 35.568576388888886  13.88888888888889 33.45269097222222  13.0859375 30.826822916666664  C 12.91232638888889 30.284288194444443  12.955729166666666 29.758029513888886  13.216145833333334 29.248046875  C 13.4765625 28.738064236111104  13.88888888888889 28.396267361111104  14.453125 28.22265625  C 14.995659722222223 28.049045138888886  15.521918402777779 28.092447916666664  16.031901041666664 28.352864583333336  C 16.541883680555557 28.61328125  16.883680555555557 29.025607638888886  17.057291666666664 29.58984375  C 17.599826388888893 31.325954861111104  18.603515625 32.731119791666664  20.068359375 33.805338541666664  C 21.533203125 34.879557291666664  23.177083333333336 35.416666666666664  25 35.416666666666664  C 26.822916666666668 35.416666666666664  28.466796875000007 34.879557291666664  29.931640625 33.805338541666664  C 31.396484375000007 32.731119791666664  32.400173611111114 31.325954861111104  32.94270833333333 29.58984375  C 33.11631944444445 29.025607638888886  33.46354166666667 28.61328125  33.984375 28.352864583333336  C 34.50520833333333 28.092447916666664  35.036892361111114 28.049045138888886  35.57942708333333 28.22265625  C 36.12196180555556 28.396267361111104  36.5234375 28.738064236111104  36.78385416666667 29.248046875  Z " stroke-width="0" stroke-dasharray="0" stroke="rgba(255, 255, 255, 0)" fill="none" transform="matrix(1 0 0 1 610 235 )" class="stroke" mask="url(#Clip3)" />
    <path d="M 19.612630208333336 13.720703125  C 20.426432291666664 14.534505208333332  20.833333333333336 15.516493055555552  20.833333333333336 16.666666666666668  C 20.833333333333336 17.816840277777775  20.426432291666664 18.798828124999993  19.612630208333336 19.612630208333332  C 18.798828125 20.426432291666668  17.81684027777778 20.833333333333332  16.666666666666664 20.833333333333332  C 15.516493055555557 20.833333333333332  14.534505208333334 20.426432291666668  13.720703125 19.612630208333332  C 12.906901041666666 18.798828124999993  12.5 17.816840277777775  12.5 16.666666666666668  C 12.5 15.516493055555552  12.906901041666666 14.534505208333332  13.720703125 13.720703125  C 14.534505208333334 12.906901041666668  15.516493055555557 12.5  16.666666666666664 12.5  C 17.81684027777778 12.5  18.798828125 12.906901041666668  19.612630208333336 13.720703125  Z " stroke-width="0" stroke-dasharray="0" stroke="rgba(255, 255, 255, 0)" fill="none" transform="matrix(1 0 0 1 610 235 )" class="stroke" mask="url(#Clip3)" />
    <path d="M 36.279296875 13.720703125  C 37.09309895833333 14.534505208333332  37.5 15.516493055555552  37.5 16.666666666666668  C 37.5 17.816840277777775  37.09309895833333 18.798828124999993  36.279296875 19.612630208333332  C 35.46549479166667 20.426432291666668  34.48350694444445 20.833333333333332  33.33333333333333 20.833333333333332  C 32.18315972222223 20.833333333333332  31.201171875 20.426432291666668  30.387369791666668 19.612630208333332  C 29.573567708333332 18.798828124999993  29.166666666666668 17.816840277777775  29.166666666666668 16.666666666666668  C 29.166666666666668 15.516493055555552  29.573567708333332 14.534505208333332  30.387369791666668 13.720703125  C 31.201171875 12.906901041666668  32.18315972222223 12.5  33.33333333333333 12.5  C 34.48350694444445 12.5  35.46549479166667 12.906901041666668  36.279296875 13.720703125  Z " stroke-width="0" stroke-dasharray="0" stroke="rgba(255, 255, 255, 0)" fill="none" transform="matrix(1 0 0 1 610 235 )" class="stroke" mask="url(#Clip3)" />
    <path d="M 44.17317708333333 33.089192708333336  C 45.27994791666667 30.517578125  45.83333333333333 27.821180555555557  45.83333333333333 25  C 45.83333333333333 22.178819444444443  45.27994791666667 19.482421875  44.17317708333333 16.910807291666668  C 43.06640625 14.339192708333332  41.58528645833333 12.125651041666668  39.72981770833333 10.270182291666668  C 37.87434895833333 8.414713541666668  35.66080729166667 6.93359375  33.08919270833333 5.826822916666669  C 30.517578125 4.720052083333331  27.821180555555557 4.166666666666669  25 4.166666666666669  C 22.178819444444446 4.166666666666669  19.482421875 4.720052083333331  16.910807291666664 5.826822916666669  C 14.339192708333334 6.93359375  12.125651041666668 8.414713541666668  10.270182291666668 10.270182291666668  C 8.414713541666668 12.125651041666668  6.93359375 14.339192708333332  5.826822916666666 16.910807291666668  C 4.720052083333334 19.482421875  4.166666666666666 22.178819444444443  4.166666666666666 25  C 4.166666666666666 27.821180555555557  4.720052083333334 30.517578125  5.826822916666666 33.089192708333336  C 6.93359375 35.660807291666664  8.414713541666668 37.87434895833333  10.270182291666668 39.72981770833333  C 12.125651041666668 41.58528645833333  14.339192708333334 43.06640625  16.910807291666664 44.17317708333333  C 19.482421875 45.27994791666667  22.178819444444446 45.83333333333333  25 45.83333333333333  C 27.821180555555557 45.83333333333333  30.517578125 45.27994791666667  33.08919270833333 44.17317708333333  C 35.66080729166667 43.06640625  37.87434895833333 41.58528645833333  39.72981770833333 39.72981770833333  C 41.58528645833333 37.87434895833333  43.06640625 35.660807291666664  44.17317708333333 33.089192708333336  Z " stroke-width="0" stroke-dasharray="0" stroke="rgba(255, 255, 255, 0)" fill="none" transform="matrix(1 0 0 1 610 235 )" class="stroke" mask="url(#Clip3)" />
    <path d="M 46.64713541666667 12.451171875  C 48.882378472222214 16.281467013888886  50 20.464409722222214  50 25  C 50 29.53559027777778  48.882378472222214 33.71853298611111  46.64713541666667 37.548828125  C 44.411892361111114 41.37912326388889  41.37912326388889 44.41189236111111  37.548828125 46.64713541666667  C 33.718532986111114 48.88237847222223  29.53559027777778 50  25 50  C 20.464409722222225 50  16.28146701388889 48.88237847222223  12.451171875 46.64713541666667  C 8.620876736111112 44.41189236111111  5.588107638888889 41.37912326388889  3.3528645833333335 37.548828125  C 1.1176215277777777 33.71853298611111  0 29.53559027777778  0 25  C 0 20.464409722222214  1.1176215277777777 16.281467013888886  3.3528645833333335 12.451171875  C 5.588107638888889 8.62087673611111  8.620876736111112 5.588107638888884  12.451171875 3.3528645833333313  C 16.28146701388889 1.1176215277777735  20.464409722222225 0  25 0  C 29.53559027777778 0  33.718532986111114 1.1176215277777735  37.548828125 3.3528645833333313  C 41.37912326388889 5.588107638888884  44.411892361111114 8.62087673611111  46.64713541666667 12.451171875  Z " stroke-width="0" stroke-dasharray="0" stroke="rgba(255, 255, 255, 0)" fill="none" transform="matrix(1 0 0 1 610 235 )" class="stroke" mask="url(#Clip3)" />
  </g>
</svg>