<?xml version="1.0" encoding="utf-8"?>
<svg version="1.1" xmlns:xlink="http://www.w3.org/1999/xlink" width="50px" height="50px" xmlns="http://www.w3.org/2000/svg">
  <defs>
    <pattern id="BGPattern" patternUnits="userSpaceOnUse" alignment="0 0" imageRepeat="None" />
    <mask fill="white" id="Clip5">
      <path d="M 10.481413772090189 42.27023737066342  C 10.867357302457851 41.88476364374112  11.060329067641682 41.42828159870156  11.060329067641682 40.90079123554474  C 11.060329067641682 40.37330087238791  10.867357302457851 39.91681882734835  10.481413772090189 39.53134510042605  C 10.095470241722527 39.14587137350375  9.638431850497666 38.9531345100426  9.1102985984156 38.9531345100426  C 8.582165346333536 38.9531345100426  8.125126955108675 39.14587137350375  7.739183424741011 39.53134510042605  C 7.353239894373351 39.91681882734835  7.160268129189519 40.37330087238791  7.160268129189519 40.90079123554474  C 7.160268129189519 41.42828159870156  7.353239894373351 41.88476364374112  7.739183424741011 42.27023737066342  C 8.125126955108675 42.655711097585716  8.582165346333536 42.848447961046865  9.1102985984156 42.848447961046865  C 9.638431850497666 42.848447961046865  10.095470241722527 42.655711097585716  10.481413772090189 42.27023737066342  Z M 25.39609993906155 24.63481436396835  C 26.929717651838313 26.166565226212214  28.691854560227505 27.328058429701763  30.682510664229127 28.11929397443701  L 9.902498476538696 48.874010955569084  C 9.150924233191144 49.62467031852303  8.236847450741418 50  7.160268129189519 50  C 6.104001625025393 50  5.17976843388178 49.62467031852303  4.387568555758683 48.874010955569084  L 1.157830591102986 45.58734023128424  C 0.3859435303676619 44.856968959220936  0 43.944004869141814  0 42.848447961046865  C 0 41.77317914384256  0.3859435303676619 40.85007100831811  1.157830591102986 40.079123554473526  L 21.90737355271176 19.35483870967742  C 22.699573430834857 21.34307161696084  23.862482226284786 23.103063501724485  25.39609993906155 24.63481436396835  Z M 49.74101157830591 14.120511259890446  C 49.913670526101974 14.32339216879691  50.000000000000014 14.576993304930008  50 14.881314668289713  C 50.000000000000014 15.672550213024955  49.766402600040635 16.747819030229255  49.29920780012188 18.10712111990262  C 48.34450538289661 20.82572529924934  46.67377615275239 23.03205518360722  44.28702010968921 24.726110772976263  C 41.90026406662604 26.4201663623453  39.27483241925655 27.267194157029824  36.41072516758074 27.267194157029824  C 32.65285395084299 27.267194157029824  29.438350599228112 25.933252180969767  26.767215112736135 23.265368228849663  C 24.09607962624416 20.597484276729556  22.760511882998173 17.38689389328464  22.760511882998173 13.633597078514914  C 22.760511882998173 9.880300263745179  24.09607962624416 6.669709880300262  26.767215112736135 4.001825928180159  C 29.438350599228112 1.333941976060049  32.65285395084299 0  36.41072516758074 0  C 37.588868576071505 0  38.822872232378636 0.1673767498478418  40.11273613650213 0.5021302495435198  C 41.402600040625636 0.8368837492391978  42.494413975218364 1.308581862446745  43.388177940280315 1.917224589166161  C 43.71318301848466 2.140393588963274  43.875685557586834 2.424426861432333  43.875685557586834 2.7693244065733422  C 43.875685557586834 3.114221951714341  43.71318301848466 3.3982552241833996  43.388177940280315 3.621424223980524  L 34.46069469835466 8.764455264759585  L 34.46069469835466 15.581253804017042  L 40.341255332114564 18.837492391965917  C 40.44281941905343 18.776628119293974  41.24517570587041 18.284641915195778  42.748324192565505 17.361533779671333  C 44.251472679260615 16.438425644146882  45.62766605728215 15.616757963075672  46.876904326630104 14.896530736457697  C 48.12614259597806 14.176303509839721  48.842169408897014 13.816189896530734  49.02498476538696 13.816189896530734  C 49.329677026203534 13.816189896530734  49.56835263050986 13.917630350983973  49.74101157830591 14.120511259890446  Z " fill-rule="evenodd" />
    </mask>
  </defs>
  <g transform="matrix(1 0 0 1 -67 -239 )">
    <path d="M 10.481413772090189 42.27023737066342  C 10.867357302457851 41.88476364374112  11.060329067641682 41.42828159870156  11.060329067641682 40.90079123554474  C 11.060329067641682 40.37330087238791  10.867357302457851 39.91681882734835  10.481413772090189 39.53134510042605  C 10.095470241722527 39.14587137350375  9.638431850497666 38.9531345100426  9.1102985984156 38.9531345100426  C 8.582165346333536 38.9531345100426  8.125126955108675 39.14587137350375  7.739183424741011 39.53134510042605  C 7.353239894373351 39.91681882734835  7.160268129189519 40.37330087238791  7.160268129189519 40.90079123554474  C 7.160268129189519 41.42828159870156  7.353239894373351 41.88476364374112  7.739183424741011 42.27023737066342  C 8.125126955108675 42.655711097585716  8.582165346333536 42.848447961046865  9.1102985984156 42.848447961046865  C 9.638431850497666 42.848447961046865  10.095470241722527 42.655711097585716  10.481413772090189 42.27023737066342  Z M 25.39609993906155 24.63481436396835  C 26.929717651838313 26.166565226212214  28.691854560227505 27.328058429701763  30.682510664229127 28.11929397443701  L 9.902498476538696 48.874010955569084  C 9.150924233191144 49.62467031852303  8.236847450741418 50  7.160268129189519 50  C 6.104001625025393 50  5.17976843388178 49.62467031852303  4.387568555758683 48.874010955569084  L 1.157830591102986 45.58734023128424  C 0.3859435303676619 44.856968959220936  0 43.944004869141814  0 42.848447961046865  C 0 41.77317914384256  0.3859435303676619 40.85007100831811  1.157830591102986 40.079123554473526  L 21.90737355271176 19.35483870967742  C 22.699573430834857 21.34307161696084  23.862482226284786 23.103063501724485  25.39609993906155 24.63481436396835  Z M 49.74101157830591 14.120511259890446  C 49.913670526101974 14.32339216879691  50.000000000000014 14.576993304930008  50 14.881314668289713  C 50.000000000000014 15.672550213024955  49.766402600040635 16.747819030229255  49.29920780012188 18.10712111990262  C 48.34450538289661 20.82572529924934  46.67377615275239 23.03205518360722  44.28702010968921 24.726110772976263  C 41.90026406662604 26.4201663623453  39.27483241925655 27.267194157029824  36.41072516758074 27.267194157029824  C 32.65285395084299 27.267194157029824  29.438350599228112 25.933252180969767  26.767215112736135 23.265368228849663  C 24.09607962624416 20.597484276729556  22.760511882998173 17.38689389328464  22.760511882998173 13.633597078514914  C 22.760511882998173 9.880300263745179  24.09607962624416 6.669709880300262  26.767215112736135 4.001825928180159  C 29.438350599228112 1.333941976060049  32.65285395084299 0  36.41072516758074 0  C 37.588868576071505 0  38.822872232378636 0.1673767498478418  40.11273613650213 0.5021302495435198  C 41.402600040625636 0.8368837492391978  42.494413975218364 1.308581862446745  43.388177940280315 1.917224589166161  C 43.71318301848466 2.140393588963274  43.875685557586834 2.424426861432333  43.875685557586834 2.7693244065733422  C 43.875685557586834 3.114221951714341  43.71318301848466 3.3982552241833996  43.388177940280315 3.621424223980524  L 34.46069469835466 8.764455264759585  L 34.46069469835466 15.581253804017042  L 40.341255332114564 18.837492391965917  C 40.44281941905343 18.776628119293974  41.24517570587041 18.284641915195778  42.748324192565505 17.361533779671333  C 44.251472679260615 16.438425644146882  45.62766605728215 15.616757963075672  46.876904326630104 14.896530736457697  C 48.12614259597806 14.176303509839721  48.842169408897014 13.816189896530734  49.02498476538696 13.816189896530734  C 49.329677026203534 13.816189896530734  49.56835263050986 13.917630350983973  49.74101157830591 14.120511259890446  Z " fill-rule="nonzero" fill="rgba(0, 0, 0, 1)" stroke="none" transform="matrix(1 0 0 1 67 239 )" class="fill" />
    <path d="M 10.481413772090189 42.27023737066342  C 10.867357302457851 41.88476364374112  11.060329067641682 41.42828159870156  11.060329067641682 40.90079123554474  C 11.060329067641682 40.37330087238791  10.867357302457851 39.91681882734835  10.481413772090189 39.53134510042605  C 10.095470241722527 39.14587137350375  9.638431850497666 38.9531345100426  9.1102985984156 38.9531345100426  C 8.582165346333536 38.9531345100426  8.125126955108675 39.14587137350375  7.739183424741011 39.53134510042605  C 7.353239894373351 39.91681882734835  7.160268129189519 40.37330087238791  7.160268129189519 40.90079123554474  C 7.160268129189519 41.42828159870156  7.353239894373351 41.88476364374112  7.739183424741011 42.27023737066342  C 8.125126955108675 42.655711097585716  8.582165346333536 42.848447961046865  9.1102985984156 42.848447961046865  C 9.638431850497666 42.848447961046865  10.095470241722527 42.655711097585716  10.481413772090189 42.27023737066342  Z " stroke-width="0" stroke-dasharray="0" stroke="rgba(255, 255, 255, 0)" fill="none" transform="matrix(1 0 0 1 67 239 )" class="stroke" mask="url(#Clip5)" />
    <path d="M 25.39609993906155 24.63481436396835  C 26.929717651838313 26.166565226212214  28.691854560227505 27.328058429701763  30.682510664229127 28.11929397443701  L 9.902498476538696 48.874010955569084  C 9.150924233191144 49.62467031852303  8.236847450741418 50  7.160268129189519 50  C 6.104001625025393 50  5.17976843388178 49.62467031852303  4.387568555758683 48.874010955569084  L 1.157830591102986 45.58734023128424  C 0.3859435303676619 44.856968959220936  0 43.944004869141814  0 42.848447961046865  C 0 41.77317914384256  0.3859435303676619 40.85007100831811  1.157830591102986 40.079123554473526  L 21.90737355271176 19.35483870967742  C 22.699573430834857 21.34307161696084  23.862482226284786 23.103063501724485  25.39609993906155 24.63481436396835  Z " stroke-width="0" stroke-dasharray="0" stroke="rgba(255, 255, 255, 0)" fill="none" transform="matrix(1 0 0 1 67 239 )" class="stroke" mask="url(#Clip5)" />
    <path d="M 49.74101157830591 14.120511259890446  C 49.913670526101974 14.32339216879691  50.000000000000014 14.576993304930008  50 14.881314668289713  C 50.000000000000014 15.672550213024955  49.766402600040635 16.747819030229255  49.29920780012188 18.10712111990262  C 48.34450538289661 20.82572529924934  46.67377615275239 23.03205518360722  44.28702010968921 24.726110772976263  C 41.90026406662604 26.4201663623453  39.27483241925655 27.267194157029824  36.41072516758074 27.267194157029824  C 32.65285395084299 27.267194157029824  29.438350599228112 25.933252180969767  26.767215112736135 23.265368228849663  C 24.09607962624416 20.597484276729556  22.760511882998173 17.38689389328464  22.760511882998173 13.633597078514914  C 22.760511882998173 9.880300263745179  24.09607962624416 6.669709880300262  26.767215112736135 4.001825928180159  C 29.438350599228112 1.333941976060049  32.65285395084299 0  36.41072516758074 0  C 37.588868576071505 0  38.822872232378636 0.1673767498478418  40.11273613650213 0.5021302495435198  C 41.402600040625636 0.8368837492391978  42.494413975218364 1.308581862446745  43.388177940280315 1.917224589166161  C 43.71318301848466 2.140393588963274  43.875685557586834 2.424426861432333  43.875685557586834 2.7693244065733422  C 43.875685557586834 3.114221951714341  43.71318301848466 3.3982552241833996  43.388177940280315 3.621424223980524  L 34.46069469835466 8.764455264759585  L 34.46069469835466 15.581253804017042  L 40.341255332114564 18.837492391965917  C 40.44281941905343 18.776628119293974  41.24517570587041 18.284641915195778  42.748324192565505 17.361533779671333  C 44.251472679260615 16.438425644146882  45.62766605728215 15.616757963075672  46.876904326630104 14.896530736457697  C 48.12614259597806 14.176303509839721  48.842169408897014 13.816189896530734  49.02498476538696 13.816189896530734  C 49.329677026203534 13.816189896530734  49.56835263050986 13.917630350983973  49.74101157830591 14.120511259890446  Z " stroke-width="0" stroke-dasharray="0" stroke="rgba(255, 255, 255, 0)" fill="none" transform="matrix(1 0 0 1 67 239 )" class="stroke" mask="url(#Clip5)" />
  </g>
</svg>